# xmcd
#
# Track frame offsets: 
#        150
#        20450
#        40922
#        57345
#        76042
#        94657
#        133115
#        147532
#        166252
#        184927
#        200372
#        220322
#
# Disc length: 3187 seconds
#
# Revision: 5
# Processed by: cddbd v1.5.2PL0 Copyright (c) Steve Scherf et al.
# Submitted via: ExactAudioCopyFreeDBPlugin 1.0
#
DISCID=a70c710c
DTITLE=Rosemary's Sons - All In Hand
DYEAR=2002
DGENRE=Rock
TTITLE0=Shine
TTITLE1=So Long
TTITLE2=All In Hand
TTITLE3=The Real Thing
TTITLE4=Cheyenne
TTITLE5=Fall Back
TTITLE6=Jealousy
TTITLE7=Dream Of You
TTITLE8=Fall From Grace
TTITLE9=Stand Still
TTITLE10=Head Over Heels
TTITLE11=Up All Night
EXTD=
EXTT0=
EXTT1=
EXTT2=
EXTT3=
EXTT4=
EXTT5=
EXTT6=
EXTT7=
EXTT8=
EXTT9=
EXTT10=
EXTT11=
PLAYORDER=
